{
  "accessors": [
    {
      "bufferView": 2,
      "componentType": 5126,
      "count": 65532,
      "max": [
        276.1527404785156,
        81.41519165039063,
        86.80066680908203
      ],
      "min": [
        -220.90292358398438,
        -81.41520690917969,
        25.656639099121094
      ],
      "type": "VEC3"
    },
    {
      "bufferView": 2,
      "byteOffset": 786384,
      "componentType": 5126,
      "count": 65532,
      "max": [
        1.0,
        1.0,
        1.0
      ],
      "min": [
        -1.0,
        -1.0,
        -1.0
      ],
      "type": "VEC3"
    },
    {
      "bufferView": 1,
      "componentType": 5126,
      "count": 65532,
      "max": [
        0.9904260039329529,
        0.9896039962768555
      ],
      "min": [
        0.0010379999876022339,
        0.0009130000253207982
      ],
      "type": "VEC2"
    },
    {
      "bufferView": 0,
      "componentType": 5125,
      "count": 336387,
      "type": "SCALAR"
    },
    {
      "bufferView": 2,
      "byteOffset": 1572768,
      "componentType": 5126,
      "count": 65532,
      "max": [
        256.4290466308594,
        89.07816314697266,
        88.08291625976563
      ],
      "min": [
        -222.50579833984375,
        -89.07817840576172,
        20.7001895904541
      ],
      "type": "VEC3"
    },
    {
      "bufferView": 2,
      "byteOffset": 2359152,
      "componentType": 5126,
      "count": 65532,
      "max": [
        1.0,
        1.0,
        1.0
      ],
      "min": [
        -1.0,
        -1.0,
        -1.0
      ],
      "type": "VEC3"
    },
    {
      "bufferView": 1,
      "byteOffset": 524256,
      "componentType": 5126,
      "count": 65532,
      "max": [
        0.9918559789657593,
        0.9920690059661865
      ],
      "min": [
        0.00380200007930398,
        0.00380200007930398
      ],
      "type": "VEC2"
    },
    {
      "bufferView": 0,
      "byteOffset": 1345548,
      "componentType": 5125,
      "count": 327540,
      "type": "SCALAR"
    },
    {
      "bufferView": 2,
      "byteOffset": 3145536,
      "componentType": 5126,
      "count": 8720,
      "max": [
        228.50408935546875,
        59.297176361083984,
        81.5462646484375
      ],
      "min": [
        -162.78599548339844,
        -59.297176361083984,
        29.95591926574707
      ],
      "type": "VEC3"
    },
    {
      "bufferView": 2,
      "byteOffset": 3250176,
      "componentType": 5126,
      "count": 8720,
      "max": [
        1.0,
        1.0,
        1.0
      ],
      "min": [
        -1.0,
        -1.0,
        -1.0
      ],
      "type": "VEC3"
    },
    {
      "bufferView": 1,
      "byteOffset": 1048512,
      "componentType": 5126,
      "count": 8720,
      "max": [
        0.9843050241470337,
        0.9906409978866577
      ],
      "min": [
        0.00380200007930398,
        0.00380200007930398
      ],
      "type": "VEC2"
    },
    {
      "bufferView": 0,
      "byteOffset": 2655708,
      "componentType": 5125,
      "count": 43509,
      "type": "SCALAR"
    },
    {
      "bufferView": 2,
      "byteOffset": 3354816,
      "componentType": 5126,
      "count": 65532,
      "max": [
        -84.934814453125,
        0.24225234985351563,
        -141.54669189453125
      ],
      "min": [
        -180.7428741455078,
        -95.56575775146484,
        -333.2747802734375
      ],
      "type": "VEC3"
    },
    {
      "bufferView": 2,
      "byteOffset": 4141200,
      "componentType": 5126,
      "count": 65532,
      "max": [
        1.0,
        1.0,
        1.0
      ],
      "min": [
        -1.0,
        -1.0,
        -1.0
      ],
      "type": "VEC3"
    },
    {
      "bufferView": 1,
      "byteOffset": 1118272,
      "componentType": 5126,
      "count": 65532,
      "max": [
        0.9910290241241455,
        0.9910060167312622
      ],
      "min": [
        0.005634000059217215,
        0.0028810000512748957
      ],
      "type": "VEC2"
    },
    {
      "bufferView": 0,
      "byteOffset": 2829744,
      "componentType": 5125,
      "count": 344925,
      "type": "SCALAR"
    },
    {
      "bufferView": 2,
      "byteOffset": 4927584,
      "componentType": 5126,
      "count": 51723,
      "max": [
        -84.934814453125,
        0.24225400388240814,
        -143.28115844726563
      ],
      "min": [
        -180.7428741455078,
        -95.56575775146484,
        -336.1679992675781
      ],
      "type": "VEC3"
    },
    {
      "bufferView": 2,
      "byteOffset": 5548260,
      "componentType": 5126,
      "count": 51723,
      "max": [
        1.0,
        1.0,
        1.0
      ],
      "min": [
        -1.0,
        -1.0,
        -1.0
      ],
      "type": "VEC3"
    },
    {
      "bufferView": 1,
      "byteOffset": 1642528,
      "componentType": 5126,
      "count": 51723,
      "max": [
        0.9910290241241455,
        0.9910060167312622
      ],
      "min": [
        0.005634000059217215,
        0.0028810000512748957
      ],
      "type": "VEC2"
    },
    {
      "bufferView": 0,
      "byteOffset": 4209444,
      "componentType": 5125,
      "count": 263715,
      "type": "SCALAR"
    },
    {
      "bufferView": 2,
      "byteOffset": 6168936,
      "componentType": 5126,
      "count": 55868,
      "max": [
        47.90402603149414,
        12.003020286560059,
        47.904014587402344
      ],
      "min": [
        -47.90402603149414,
        -19.479904174804688,
        -47.90401077270508
      ],
      "type": "VEC3"
    },
    {
      "bufferView": 2,
      "byteOffset": 6839352,
      "componentType": 5126,
      "count": 55868,
      "max": [
        1.0,
        1.0,
        1.0
      ],
      "min": [
        -1.0,
        -1.0,
        -1.0
      ],
      "type": "VEC3"
    },
    {
      "bufferView": 1,
      "byteOffset": 2056312,
      "componentType": 5126,
      "count": 55868,
      "max": [
        0.9959750175476074,
        0.9932420253753662
      ],
      "min": [
        0.003389999968931079,
        0.003389999968931079
      ],
      "type": "VEC2"
    },
    {
      "bufferView": 0,
      "byteOffset": 5264304,
      "componentType": 5125,
      "count": 303570,
      "type": "SCALAR"
    },
    {
      "bufferView": 2,
      "byteOffset": 7509768,
      "componentType": 5126,
      "count": 55868,
      "max": [
        47.90402603149414,
        100.72776794433594,
        47.904014587402344
      ],
      "min": [
        -47.90402603149414,
        69.24484252929688,
        -47.90401077270508
      ],
      "type": "VEC3"
    },
    {
      "bufferView": 2,
      "byteOffset": 8180184,
      "componentType": 5126,
      "count": 55868,
      "max": [
        1.0,
        1.0,
        1.0
      ],
      "min": [
        -1.0,
        -1.0,
        -1.0
      ],
      "type": "VEC3"
    },
    {
      "bufferView": 1,
      "byteOffset": 2503256,
      "componentType": 5126,
      "count": 55868,
      "max": [
        0.9959750175476074,
        0.9932420253753662
      ],
      "min": [
        0.003389999968931079,
        0.003389999968931079
      ],
      "type": "VEC2"
    },
    {
      "bufferView": 0,
      "byteOffset": 6478584,
      "componentType": 5125,
      "count": 303570,
      "type": "SCALAR"
    }
  ],
  "asset": {
    "extras": {
      "author": "Gerhald (https://sketchfab.com/Gerhald)",
      "license": "CC-BY-4.0 (http://creativecommons.org/licenses/by/4.0/)",
      "source": "https://sketchfab.com/3d-models/car-chassis-461d16d1a5ac44f58323ac4b7493b043",
      "title": "Car Chassis"
    },
    "generator": "Sketchfab-16.75.0",
    "version": "2.0"
  },
  "bufferViews": [
    {
      "buffer": 0,
      "byteLength": 7692864,
      "name": "floatBufferViews",
      "target": 34963
    },
    {
      "buffer": 0,
      "byteLength": 2950200,
      "byteOffset": 7692864,
      "byteStride": 8,
      "name": "floatBufferViews",
      "target": 34962
    },
    {
      "buffer": 0,
      "byteLength": 8850600,
      "byteOffset": 10643064,
      "byteStride": 12,
      "name": "floatBufferViews",
      "target": 34962
    }
  ],
  "buffers": [
    {
      "byteLength": 19493664,
      "uri": "Chasis1.bin"
    }
  ],
  "materials": [
    {
      "doubleSided": true,
      "name": "chassis",
      "pbrMetallicRoughness": {
        "baseColorFactor": [
          0.7494345424331753,
          0.7494345424331753,
          0.7494345424331753,
          1.0
        ],
        "roughnessFactor": 0.3702868427789494
      }
    },
    {
      "doubleSided": true,
      "name": "Weel_2",
      "pbrMetallicRoughness": {
        "baseColorFactor": [
          0.15090114725019055,
          0.15090114725019055,
          0.15090114725019055,
          1.0
        ],
        "roughnessFactor": 0.41295363947775837
      }
    },
    {
      "doubleSided": true,
      "name": "Weel",
      "pbrMetallicRoughness": {
        "baseColorFactor": [
          0.14995978981060856,
          0.14995978981060856,
          0.14995978981060856,
          1.0
        ],
        "roughnessFactor": 0.44952517950530896
      }
    }
  ],
  "meshes": [
    {
      "name": "Cassis_chassis_0",
      "primitives": [
        {
          "attributes": {
            "NORMAL": 1,
            "POSITION": 0,
            "TEXCOORD_0": 2
          },
          "indices": 3,
          "material": 0,
          "mode": 4
        }
      ]
    },
    {
      "name": "Cassis_chassis_0",
      "primitives": [
        {
          "attributes": {
            "NORMAL": 5,
            "POSITION": 4,
            "TEXCOORD_0": 6
          },
          "indices": 7,
          "material": 0,
          "mode": 4
        }
      ]
    },
    {
      "name": "Cassis_chassis_0",
      "primitives": [
        {
          "attributes": {
            "NORMAL": 9,
            "POSITION": 8,
            "TEXCOORD_0": 10
          },
          "indices": 11,
          "material": 0,
          "mode": 4
        }
      ]
    },
    {
      "name": "Weel_2_Weel_2_0",
      "primitives": [
        {
          "attributes": {
            "NORMAL": 13,
            "POSITION": 12,
            "TEXCOORD_0": 14
          },
          "indices": 15,
          "material": 1,
          "mode": 4
        }
      ]
    },
    {
      "name": "Weel_2_Weel_2_0",
      "primitives": [
        {
          "attributes": {
            "NORMAL": 17,
            "POSITION": 16,
            "TEXCOORD_0": 18
          },
          "indices": 19,
          "material": 1,
          "mode": 4
        }
      ]
    },
    {
      "name": "Object133_Weel_0",
      "primitives": [
        {
          "attributes": {
            "NORMAL": 21,
            "POSITION": 20,
            "TEXCOORD_0": 22
          },
          "indices": 23,
          "material": 2,
          "mode": 4
        }
      ]
    },
    {
      "name": "Object134_Weel_0",
      "primitives": [
        {
          "attributes": {
            "NORMAL": 25,
            "POSITION": 24,
            "TEXCOORD_0": 26
          },
          "indices": 27,
          "material": 2,
          "mode": 4
        }
      ]
    }
  ],
  "nodes": [
    {
      "children": [
        1
      ],
      "matrix": [
        1.0,
        0.0,
        0.0,
        0.0,
        0.0,
        2.220446049250313e-16,
        -1.0,
        0.0,
        0.0,
        1.0,
        2.220446049250313e-16,
        0.0,
        0.0,
        0.0,
        0.0,
        1.0
      ],
      "name": "Sketchfab_model"
    },
    {
      "children": [
        2
      ],
      "matrix": [
        0.009999999776482582,
        0.0,
        0.0,
        0.0,
        0.0,
        0.0,
        0.009999999776482582,
        0.0,
        0.0,
        -0.009999999776482582,
        0.0,
        0.0,
        0.0,
        0.0,
        0.0,
        1.0
      ],
      "name": "22ed455792e84d43866a27b03e7dc942.fbx"
    },
    {
      "children": [
        3,
        7,
        11,
        14
      ],
      "name": "RootNode"
    },
    {
      "children": [
        4,
        5,
        6
      ],
      "matrix": [
        1.0,
        0.0,
        0.0,
        0.0,
        0.0,
        2.220446049250313e-16,
        -1.0,
        0.0,
        0.0,
        1.0,
        2.220446049250313e-16,
        0.0,
        41.97590255737305,
        3.1372432708740234,
        5.6306693295482546e-05,
        1.0
      ],
      "name": "Cassis"
    },
    {
      "mesh": 0,
      "name": "Cassis_chassis_0"
    },
    {
      "mesh": 1,
      "name": "Cassis_chassis_0"
    },
    {
      "mesh": 2,
      "name": "Cassis_chassis_0"
    },
    {
      "children": [
        8
      ],
      "matrix": [
        1.0,
        0.0,
        0.0,
        0.0,
        0.0,
        -1.0,
        -1.1924880760967735e-08,
        0.0,
        0.0,
        1.1924880760967735e-08,
        -1.0,
        0.0,
        193.41090393066406,
        47.66175079345703,
        0.0,
        1.0
      ],
      "name": "Weel_2"
    },
    {
      "children": [
        9,
        10
      ],
      "matrix": [
        1.0,
        0.0,
        -0.0,
        0.0,
        0.0,
        1.0,
        0.0,
        0.0,
        0.0,
        0.0,
        1.0,
        0.0,
        132.83883666992188,
        47.66175079345703,
        238.8573455810547,
        1.0
      ],
      "name": "Object_8"
    },
    {
      "mesh": 3,
      "name": "Weel_2_Weel_2_0"
    },
    {
      "mesh": 4,
      "name": "Weel_2_Weel_2_0"
    },
    {
      "children": [
        12
      ],
      "matrix": [
        1.0,
        0.0,
        0.0,
        0.0,
        0.0,
        2.220446049250313e-16,
        -1.0,
        0.0,
        0.0,
        1.0,
        2.220446049250313e-16,
        0.0,
        -131.736572265625,
        47.661773681640625,
        0.0,
        1.0
      ],
      "name": "Object133"
    },
    {
      "children": [
        13
      ],
      "matrix": [
        1.0,
        0.0,
        -0.0,
        0.0,
        0.0,
        1.0,
        0.0,
        0.0,
        0.0,
        0.0,
        1.0,
        0.0,
        0.0,
        -81.24786376953125,
        0.0,
        1.0
      ],
      "name": "Object_12"
    },
    {
      "mesh": 5,
      "name": "Object133_Weel_0"
    },
    {
      "children": [
        15
      ],
      "matrix": [
        1.0,
        0.0,
        0.0,
        0.0,
        0.0,
        2.220446049250313e-16,
        -1.0,
        0.0,
        0.0,
        1.0,
        2.220446049250313e-16,
        0.0,
        -131.736572265625,
        47.661773681640625,
        0.0,
        1.0
      ],
      "name": "Object134"
    },
    {
      "mesh": 6,
      "name": "Object134_Weel_0"
    }
  ],
  "scene": 0,
  "scenes": [
    {
      "name": "Sketchfab_Scene",
      "nodes": [
        0
      ]
    }
  ]
}
