{
  "accessors": [
    {
      "bufferView": 2,
      "componentType": 5126,
      "count": 52336,
      "max": [
        5.7846999168396,
        -20.31369972229004,
        -3.8851029872894287
      ],
      "min": [
        -5.7846999168396,
        -26.22439956665039,
        -5.410004138946533
      ],
      "type": "VEC3"
    },
    {
      "bufferView": 2,
      "byteOffset": 628032,
      "componentType": 5126,
      "count": 52336,
      "max": [
        1.0,
        1.0,
        1.0
      ],
      "min": [
        -1.0,
        -1.0,
        -1.0
      ],
      "type": "VEC3"
    },
    {
      "bufferView": 1,
      "componentType": 5126,
      "count": 52336,
      "max": [
        0.9995239973068237,
        0.9672390222549438
      ],
      "min": [
        0.00047599998652003706,
        0.00047599998652003706
      ],
      "type": "VEC2"
    },
    {
      "bufferView": 0,
      "componentType": 5125,
      "count": 297408,
      "type": "SCALAR"
    }
  ],
  "asset": {
    "extras": {
      "author": "Silver10211 (https://sketchfab.com/Silver10211)",
      "license": "CC-BY-4.0 (http://creativecommons.org/licenses/by/4.0/)",
      "source": "https://sketchfab.com/3d-models/valvetronic-quad-exhaust-system-bb6be6106fce465698548917732c4b13",
      "title": "Valvetronic Quad Exhaust System"
    },
    "generator": "Sketchfab-12.66.0",
    "version": "2.0"
  },
  "bufferViews": [
    {
      "buffer": 0,
      "byteLength": 1189632,
      "name": "floatBufferViews",
      "target": 34963
    },
    {
      "buffer": 0,
      "byteLength": 418688,
      "byteOffset": 1189632,
      "byteStride": 8,
      "name": "floatBufferViews",
      "target": 34962
    },
    {
      "buffer": 0,
      "byteLength": 1256064,
      "byteOffset": 1608320,
      "byteStride": 12,
      "name": "floatBufferViews",
      "target": 34962
    }
  ],
  "buffers": [
    {
      "byteLength": 2864384,
      "uri": "Exhaust1.bin"
    }
  ],
  "images": [
    {
      "uri": "textures/Default_Material_baseColor.png"
    },
    {
      "uri": "textures/Default_Material_metallicRoughness.png"
    }
  ],
  "materials": [
    {
      "doubleSided": true,
      "name": "Default_Material",
      "occlusionTexture": {
        "index": 1
      },
      "pbrMetallicRoughness": {
        "baseColorTexture": {
          "index": 0
        },
        "metallicRoughnessTexture": {
          "index": 1
        },
        "roughnessFactor": 0.0
      }
    }
  ],
  "meshes": [
    {
      "name": "Object_0",
      "primitives": [
        {
          "attributes": {
            "NORMAL": 1,
            "POSITION": 0,
            "TEXCOORD_0": 2
          },
          "indices": 3,
          "material": 0,
          "mode": 4
        }
      ]
    }
  ],
  "nodes": [
    {
      "children": [
        1
      ],
      "matrix": [
        1.0,
        0.0,
        0.0,
        0.0,
        0.0,
        3.828568672208042e-16,
        -1.0,
        0.0,
        0.0,
        1.0,
        3.828568672208042e-16,
        0.0,
        0.0,
        3.552713678800501e-15,
        7.888609052210118e-31,
        1.0
      ],
      "name": "Sketchfab_model"
    },
    {
      "children": [
        2
      ],
      "name": "untitled.obj.cleaner.materialmerger.gles"
    },
    {
      "mesh": 0,
      "name": "Object_2"
    }
  ],
  "samplers": [
    {
      "magFilter": 9729,
      "minFilter": 9987,
      "wrapS": 10497,
      "wrapT": 10497
    }
  ],
  "scene": 0,
  "scenes": [
    {
      "name": "Sketchfab_Scene",
      "nodes": [
        0
      ]
    }
  ],
  "textures": [
    {
      "sampler": 0,
      "source": 0
    },
    {
      "sampler": 0,
      "source": 1
    }
  ]
}
