{
  "accessors": [
    {
      "bufferView": 2,
      "componentType": 5126,
      "count": 2678,
      "max": [
        3.2990832328796387,
        14.26980972290039,
        13.246150016784668
      ],
      "min": [
        -3.9134984016418457,
        0.9609155654907227,
        -6.427093505859375
      ],
      "type": "VEC3"
    },
    {
      "bufferView": 2,
      "byteOffset": 32136,
      "componentType": 5126,
      "count": 2678,
      "max": [
        0.9999975562095642,
        0.9998437762260437,
        0.999759316444397
      ],
      "min": [
        -0.9999952912330627,
        -0.9999970197677612,
        -0.9985954165458679
      ],
      "type": "VEC3"
    },
    {
      "bufferView": 3,
      "componentType": 5126,
      "count": 2678,
      "max": [
        0.9999963641166687,
        0.999967634677887,
        0.9999210834503174,
        1.0
      ],
      "min": [
        -0.9999895095825195,
        -0.9996004104614258,
        -0.9999467134475708,
        -1.0
      ],
      "type": "VEC4"
    },
    {
      "bufferView": 1,
      "componentType": 5126,
      "count": 2678,
      "max": [
        0.9521499872207642,
        0.9973030090332031
      ],
      "min": [
        0.02088800072669983,
        0.07200495153665543
      ],
      "type": "VEC2"
    },
    {
      "bufferView": 1,
      "byteOffset": 21424,
      "componentType": 5126,
      "count": 2678,
      "max": [
        0.9521499872207642,
        0.9973030090332031
      ],
      "min": [
        0.02088800072669983,
        0.07200495153665543
      ],
      "type": "VEC2"
    },
    {
      "bufferView": 1,
      "byteOffset": 42848,
      "componentType": 5126,
      "count": 2678,
      "max": [
        0.9521499872207642,
        0.9973030090332031
      ],
      "min": [
        0.02088800072669983,
        0.07200495153665543
      ],
      "type": "VEC2"
    },
    {
      "bufferView": 1,
      "byteOffset": 64272,
      "componentType": 5126,
      "count": 2678,
      "max": [
        0.9521499872207642,
        0.9973030090332031
      ],
      "min": [
        0.02088800072669983,
        0.07200495153665543
      ],
      "type": "VEC2"
    },
    {
      "bufferView": 0,
      "componentType": 5125,
      "count": 6012,
      "type": "SCALAR"
    },
    {
      "bufferView": 2,
      "byteOffset": 64272,
      "componentType": 5126,
      "count": 2102,
      "max": [
        3.0050783157348633,
        15.361124038696289,
        15.6398286819458
      ],
      "min": [
        -3.62457537651062,
        -2.4163074493408203,
        -6.127607345581055
      ],
      "type": "VEC3"
    },
    {
      "bufferView": 2,
      "byteOffset": 89496,
      "componentType": 5126,
      "count": 2102,
      "max": [
        1.0,
        0.9997472763061523,
        0.9987103939056396
      ],
      "min": [
        -0.9999993443489075,
        -0.999495267868042,
        -0.9999750852584839
      ],
      "type": "VEC3"
    },
    {
      "bufferView": 3,
      "byteOffset": 42848,
      "componentType": 5126,
      "count": 2102,
      "max": [
        0.9999997615814209,
        0.9911946058273315,
        0.9228066205978394,
        1.0
      ],
      "min": [
        -0.9999968409538269,
        -0.9775421619415283,
        -0.9614750146865845,
        1.0
      ],
      "type": "VEC4"
    },
    {
      "bufferView": 1,
      "byteOffset": 85696,
      "componentType": 5126,
      "count": 2102,
      "max": [
        0.9621000289916992,
        0.9933300018310547
      ],
      "min": [
        0.0032599999103695154,
        0.008539999835193157
      ],
      "type": "VEC2"
    },
    {
      "bufferView": 1,
      "byteOffset": 102512,
      "componentType": 5126,
      "count": 2102,
      "max": [
        0.9621000289916992,
        0.9933300018310547
      ],
      "min": [
        0.0032599999103695154,
        0.008539999835193157
      ],
      "type": "VEC2"
    },
    {
      "bufferView": 1,
      "byteOffset": 119328,
      "componentType": 5126,
      "count": 2102,
      "max": [
        0.9621000289916992,
        0.9933300018310547
      ],
      "min": [
        0.0032599999103695154,
        0.008539999835193157
      ],
      "type": "VEC2"
    },
    {
      "bufferView": 0,
      "byteOffset": 24048,
      "componentType": 5125,
      "count": 5592,
      "type": "SCALAR"
    },
    {
      "bufferView": 2,
      "byteOffset": 114720,
      "componentType": 5126,
      "count": 2360,
      "max": [
        1.1853446960449219,
        13.415243148803711,
        13.425087928771973
      ],
      "min": [
        -4.450139045715332,
        -13.404439926147461,
        -13.400590896606445
      ],
      "type": "VEC3"
    },
    {
      "bufferView": 2,
      "byteOffset": 143040,
      "componentType": 5126,
      "count": 2360,
      "max": [
        0.9999991059303284,
        0.9999781250953674,
        0.9999547004699707
      ],
      "min": [
        -0.9999991059303284,
        -0.9998688697814941,
        -0.9999234080314636
      ],
      "type": "VEC3"
    },
    {
      "bufferView": 3,
      "byteOffset": 76480,
      "componentType": 5126,
      "count": 2360,
      "max": [
        0.9999998211860657,
        0.9998406171798706,
        0.9999814033508301,
        1.0
      ],
      "min": [
        -0.9999774098396301,
        -0.9997137784957886,
        -0.9999655485153198,
        1.0
      ],
      "type": "VEC4"
    },
    {
      "bufferView": 1,
      "byteOffset": 136144,
      "componentType": 5126,
      "count": 2360,
      "max": [
        0.9938631057739258,
        0.9984055757522583
      ],
      "min": [
        0.06041838601231575,
        0.0027619313914328814
      ],
      "type": "VEC2"
    },
    {
      "bufferView": 1,
      "byteOffset": 155024,
      "componentType": 5126,
      "count": 2360,
      "max": [
        0.9938631057739258,
        0.9984055757522583
      ],
      "min": [
        0.06041838601231575,
        0.0027619313914328814
      ],
      "type": "VEC2"
    },
    {
      "bufferView": 1,
      "byteOffset": 173904,
      "componentType": 5126,
      "count": 2360,
      "max": [
        0.9938631057739258,
        0.9984055757522583
      ],
      "min": [
        0.06041838601231575,
        0.0027619313914328814
      ],
      "type": "VEC2"
    },
    {
      "bufferView": 0,
      "byteOffset": 46416,
      "componentType": 5125,
      "count": 5856,
      "type": "SCALAR"
    },
    {
      "bufferView": 2,
      "byteOffset": 171360,
      "componentType": 5126,
      "count": 388,
      "max": [
        1.0494228601455688,
        13.420353889465332,
        13.427009582519531
      ],
      "min": [
        -4.235424041748047,
        -13.407247543334961,
        -13.406603813171387
      ],
      "type": "VEC3"
    },
    {
      "bufferView": 2,
      "byteOffset": 176016,
      "componentType": 5126,
      "count": 388,
      "max": [
        0.9999964237213135,
        0.9997705817222595,
        0.9999246597290039
      ],
      "min": [
        -0.9999961256980896,
        -0.9997745156288147,
        -0.9996239542961121
      ],
      "type": "VEC3"
    },
    {
      "bufferView": 1,
      "byteOffset": 192784,
      "componentType": 5126,
      "count": 388,
      "max": [
        0.9958078861236572,
        0.9984257221221924
      ],
      "min": [
        0.0020000000949949026,
        0.0013553716707974672
      ],
      "type": "VEC2"
    },
    {
      "bufferView": 1,
      "byteOffset": 195888,
      "componentType": 5126,
      "count": 388,
      "max": [
        0.9958078861236572,
        0.9984257221221924
      ],
      "min": [
        0.0020000000949949026,
        0.0013553716707974672
      ],
      "type": "VEC2"
    },
    {
      "bufferView": 1,
      "byteOffset": 198992,
      "componentType": 5126,
      "count": 388,
      "max": [
        0.9958078861236572,
        0.9984257221221924
      ],
      "min": [
        0.0020000000949949026,
        0.0013553716707974672
      ],
      "type": "VEC2"
    },
    {
      "bufferView": 1,
      "byteOffset": 202096,
      "componentType": 5126,
      "count": 388,
      "max": [
        0.9958078861236572,
        0.9984257221221924
      ],
      "min": [
        0.0020000000949949026,
        0.0013553716707974672
      ],
      "type": "VEC2"
    },
    {
      "bufferView": 0,
      "byteOffset": 69840,
      "componentType": 5125,
      "count": 1152,
      "type": "SCALAR"
    }
  ],
  "asset": {
    "extras": {
      "author": "Vladi (https://sketchfab.com/vladivpg)",
      "license": "CC-BY-4.0 (http://creativecommons.org/licenses/by/4.0/)",
      "source": "https://sketchfab.com/3d-models/brake-disk-and-caliper-5feda9dbf20a49cf9fd29d550e55e4b9",
      "title": "Brake Disk and Caliper"
    },
    "generator": "Sketchfab-14.9.0",
    "version": "2.0"
  },
  "bufferViews": [
    {
      "buffer": 0,
      "byteLength": 74448,
      "name": "floatBufferViews",
      "target": 34963
    },
    {
      "buffer": 0,
      "byteLength": 205200,
      "byteOffset": 74448,
      "byteStride": 8,
      "name": "floatBufferViews",
      "target": 34962
    },
    {
      "buffer": 0,
      "byteLength": 180672,
      "byteOffset": 279648,
      "byteStride": 12,
      "name": "floatBufferViews",
      "target": 34962
    },
    {
      "buffer": 0,
      "byteLength": 114240,
      "byteOffset": 460320,
      "byteStride": 16,
      "name": "floatBufferViews",
      "target": 34962
    }
  ],
  "buffers": [
    {
      "byteLength": 574560,
      "uri": "brake1.bin"
    }
  ],
  "images": [
    {
      "uri": "textures/BrakeDisk_Mat2_baseColor.jpeg"
    },
    {
      "uri": "textures/BrakeDisk_Mat2_metallicRoughness.png"
    },
    {
      "uri": "textures/BrakeDisk_Mat2_normal.jpeg"
    },
    {
      "uri": "textures/BrakeDisk_Mat1_metallicRoughness.png"
    }
  ],
  "materials": [
    {
      "doubleSided": true,
      "name": "BrakeDisk_Mat2",
      "normalTexture": {
        "index": 2
      },
      "occlusionTexture": {
        "index": 1
      },
      "pbrMetallicRoughness": {
        "baseColorTexture": {
          "index": 0
        },
        "metallicRoughnessTexture": {
          "index": 1
        },
        "roughnessFactor": 0.5306851139120442
      }
    },
    {
      "name": "BrakeDisk_Mat",
      "normalTexture": {
        "index": 2
      },
      "occlusionTexture": {
        "index": 1
      },
      "pbrMetallicRoughness": {
        "baseColorTexture": {
          "index": 0
        },
        "metallicRoughnessTexture": {
          "index": 1
        },
        "roughnessFactor": 0.7009299624853316
      }
    },
    {
      "name": "BrakeDisk_Mat1",
      "pbrMetallicRoughness": {
        "baseColorTexture": {
          "index": 0
        },
        "metallicFactor": 0.9198161963652726,
        "metallicRoughnessTexture": {
          "index": 3
        },
        "roughnessFactor": 0.2509971483987864
      }
    }
  ],
  "meshes": [
    {
      "name": "CalliperBrakeFluidLineBolts_Geo_BrakeDisk_Mat2_0",
      "primitives": [
        {
          "attributes": {
            "NORMAL": 1,
            "POSITION": 0,
            "TANGENT": 2,
            "TEXCOORD_0": 3,
            "TEXCOORD_1": 4,
            "TEXCOORD_2": 5,
            "TEXCOORD_3": 6
          },
          "indices": 7,
          "material": 0,
          "mode": 4
        }
      ]
    },
    {
      "name": "BrakeCalliper_Geo_BrakeDisk_Mat_0",
      "primitives": [
        {
          "attributes": {
            "NORMAL": 9,
            "POSITION": 8,
            "TANGENT": 10,
            "TEXCOORD_0": 11,
            "TEXCOORD_1": 12,
            "TEXCOORD_2": 13
          },
          "indices": 14,
          "material": 1,
          "mode": 4
        }
      ]
    },
    {
      "name": "polySurface5_BrakeDisk_Mat_0",
      "primitives": [
        {
          "attributes": {
            "NORMAL": 16,
            "POSITION": 15,
            "TANGENT": 17,
            "TEXCOORD_0": 18,
            "TEXCOORD_1": 19,
            "TEXCOORD_2": 20
          },
          "indices": 21,
          "material": 1,
          "mode": 4
        }
      ]
    },
    {
      "name": "polySurface6_BrakeDisk_Mat1_0",
      "primitives": [
        {
          "attributes": {
            "NORMAL": 23,
            "POSITION": 22,
            "TEXCOORD_0": 24,
            "TEXCOORD_1": 25,
            "TEXCOORD_2": 26,
            "TEXCOORD_3": 27
          },
          "indices": 28,
          "material": 2,
          "mode": 4
        }
      ]
    }
  ],
  "nodes": [
    {
      "children": [
        1
      ],
      "matrix": [
        0.016078371554613113,
        0.0,
        0.0,
        0.0,
        0.0,
        3.57011565968193e-18,
        -0.016078371554613113,
        0.0,
        0.0,
        0.016078371554613113,
        3.57011565968193e-18,
        0.0,
        0.0,
        0.0,
        0.0,
        1.0
      ],
      "name": "Sketchfab_model"
    },
    {
      "children": [
        2
      ],
      "matrix": [
        1.0,
        0.0,
        0.0,
        0.0,
        0.0,
        0.0,
        1.0,
        0.0,
        0.0,
        -1.0,
        0.0,
        0.0,
        0.0,
        0.0,
        0.0,
        1.0
      ],
      "name": "6d10a9b78680411c83d030201efc7a29.fbx"
    },
    {
      "children": [
        3,
        8,
        10
      ],
      "name": "RootNode"
    },
    {
      "children": [
        4,
        6
      ],
      "matrix": [
        1.0,
        0.0,
        0.0,
        0.0,
        0.0,
        2.220446049250313e-16,
        -1.0,
        0.0,
        0.0,
        1.0,
        2.220446049250313e-16,
        0.0,
        0.0,
        0.0,
        0.0,
        1.0
      ],
      "name": "Geometry"
    },
    {
      "children": [
        5
      ],
      "matrix": [
        1.0,
        0.0,
        0.0,
        0.0,
        0.0,
        2.220446049250313e-16,
        1.0,
        0.0,
        0.0,
        -1.0,
        2.220446049250313e-16,
        0.0,
        0.0,
        0.0,
        0.0,
        1.0
      ],
      "name": "CalliperBrakeFluidLineBolts_Geo"
    },
    {
      "mesh": 0,
      "name": "CalliperBrakeFluidLineBolts_Geo_BrakeDisk_Mat2_0"
    },
    {
      "children": [
        7
      ],
      "matrix": [
        1.0,
        0.0,
        0.0,
        0.0,
        0.0,
        2.220446049250313e-16,
        1.0,
        0.0,
        0.0,
        -1.0,
        2.220446049250313e-16,
        0.0,
        0.0,
        0.0,
        0.0,
        1.0
      ],
      "name": "BrakeCalliper_Geo"
    },
    {
      "mesh": 1,
      "name": "BrakeCalliper_Geo_BrakeDisk_Mat_0"
    },
    {
      "children": [
        9
      ],
      "matrix": [
        1.0,
        0.0,
        0.0,
        0.0,
        0.0,
        2.220446049250313e-16,
        -1.0,
        0.0,
        0.0,
        1.0,
        2.220446049250313e-16,
        0.0,
        0.0,
        0.0,
        0.0,
        1.0
      ],
      "name": "polySurface5"
    },
    {
      "mesh": 2,
      "name": "polySurface5_BrakeDisk_Mat_0"
    },
    {
      "children": [
        11
      ],
      "matrix": [
        1.0,
        0.0,
        0.0,
        0.0,
        0.0,
        2.220446049250313e-16,
        -1.0,
        0.0,
        0.0,
        1.0,
        2.220446049250313e-16,
        0.0,
        0.0,
        0.0,
        0.0,
        1.0
      ],
      "name": "polySurface6"
    },
    {
      "mesh": 3,
      "name": "polySurface6_BrakeDisk_Mat1_0"
    }
  ],
  "samplers": [
    {
      "magFilter": 9729,
      "minFilter": 9987,
      "wrapS": 10497,
      "wrapT": 10497
    }
  ],
  "scene": 0,
  "scenes": [
    {
      "name": "Sketchfab_Scene",
      "nodes": [
        0
      ]
    }
  ],
  "textures": [
    {
      "sampler": 0,
      "source": 0
    },
    {
      "sampler": 0,
      "source": 1
    },
    {
      "sampler": 0,
      "source": 2
    },
    {
      "sampler": 0,
      "source": 3
    }
  ]
}
